<svg width="461" height="350" fill="none" xmlns="http://www.w3.org/2000/svg">
  <path d="M165.7 70l-.2.2a6.3 6.3 0 0 1-4.5 2.2l2.8-4.9c1.8-3.1.1-6.1-2.7-6.1-2.3 0-4 .9-5.8 3.9l-1.5 2.6-1.2 2.1-.2.2c-2.2 2.5-4.3 4.5-5.6 4.5-.7 0-1-.5-.3-1.6l6.4-11.2h2.4l1-1.4h-2.6l2.8-4.9h-3l-2.8 4.9H148l-1 1.4h2.8l-6 10.4c-1.3 2.2-.4 4.3 2 4.3 1.7 0 3.7-1.3 5.5-3.1 0 3.8 5.3 4.6 8.5.5h.7a9 9 0 0 0 6.1-2.9c0-.5-.5-.9-.9-1.1zm-6.4.2a1.8 1.8 0 0 0-1.6 2.8v.1c-1.4 2.4-4.8 2-3.1-1.2l2.3-3.9 1.4-2.4c2.1-3.6 5-2.2 3.2.9l-2.2 3.7zm48.1-.2l-.2.2c-2.2 2.5-5 4.5-7 4.5-1.9 0-3-1.2-1.7-3.6l.3-.5c2 .8 5.7.4 7.9-3.5l.4-.7c1.6-2.8 0-4.8-2.4-4.8s-4.3 1.3-5.7 3.5l-2.9 5-.2.2c-2.2 2.5-4.3 4.5-5.6 4.5-.7 0-1-.5-.3-1.6l4.3-7.6c1.3-2.3.1-3.9-1.6-3.9-1.3 0-2.7.7-4.2 2.3l4.8-8.3h-3L182 70l-.2.2c-2.2 2.5-4.3 4.5-5.6 4.5-.7 0-1-.5-.3-1.6l6.4-11.2h2.4l.9-1.4h-2.5l2.8-4.9h-3l-2.8 4.9h-2.7l-1 1.4h2.8l-6 10.4c-1.3 2.2-.4 4.3 2 4.3 1.2 0 2.5-.6 3.8-1.6l-.8 1.3h3l4.5-7.9c4.6-5.8 6.6-5 5.4-2.8l-3.9 6.8c-1.3 2.2-.4 4.3 2 4.3 1.8 0 3.8-1.4 5.6-3.2.1 1.9 1.7 3.2 4.1 3.2 3.5 0 6.9-2.6 9.3-5.5 0-.6-.4-1-.8-1.2zm-5.7-4.2c1.7-3 4.8-2.5 3 .6l-.4.7c-1.4 2.4-3.4 2.4-4.6 2l2-3.3zM316.8 70l-.2.2a22 22 0 0 1-3.6 3.3c1-2.9.7-7.2 2.6-11.1l-2.2-1.2c-1.2 1.7-3.9 5.6-6.7 8.8l-.2.2c-2.2 2.5-4.3 4.5-5.6 4.5-.7 0-1-.5-.3-1.6l6.4-11.2h-3l-5.3 9.3c-2.3 2.1-4 3.2-4.6 3-.7-.3 0-1.4.4-2.1l5.8-10.2h-3l-4.7 8.1-.2.2a6.3 6.3 0 0 1-4.6 2.2l2.8-4.9c1.9-3.1.1-6.1-2.7-6.1-2.3 0-4 .9-5.8 3.9l-1.5 2.6-1.2 2.1-.2.2c-2.2 2.5-5 4.5-7 4.5-1.8 0-3-1.2-1.6-3.6l.3-.5c1.9.8 5.6.4 7.8-3.5l.4-.7c1.6-2.8.1-4.8-2.4-4.8-2.4 0-4.3 1.3-5.6 3.5l-3 5-.1.2a19.4 19.4 0 0 1-7 5.7l6.7-11.5h-1.8c0-1.2-1.3-2.9-3.1-2.9-1.7 0-4 1.3-5.2 3.5l-2.9 5-.2.2c-2.2 2.5-4.3 4.5-5.6 4.5-.7 0-1-.5-.3-1.6l3-5.2c1-1.8.5-2.9-.4-4.1l-1.7-2c-.4-.5-.4-1.2.2-1.7l-1.6-1.7c-1.7 1.5-1.8 3.2-.8 4.6l.3.3a75.1 75.1 0 0 1-5.1 6.7l-.2.2a6.3 6.3 0 0 1-4.5 2.2l2.8-4.9c1.8-3.1 0-6.1-2.7-6.1-2.3 0-4.1.9-5.8 3.9l-1.5 2.6-1.3 2.1-.2.2a19.4 19.4 0 0 1-7 5.7l6.7-11.5H227c0-1.2-1.3-2.9-3-2.9s-4 1.3-5.2 3.5l-4.2 7.3c-1.3 2.2-.4 4.3 2 4.3.8 0 1.8-.4 3-1l-.9 1.4c-4 1.2-6.6 2.9-6.6 5.1 0 2.9 4.4 3.5 6.6-.2l2.3-3.9c2.4-.7 4.7-2.2 7.2-4.5 0 3.8 5.4 4.6 8.6.5h.7a9 9 0 0 0 6-2.9c1.5-1.7 2.7-3.2 5.1-6.4l.4.5c.4.5.5 1.1.2 1.7l-3.2 5.5c-1.3 2.2-.4 4.3 2 4.3 1.5 0 3.2-1 4.8-2.4 0 1.4 1 2.4 2.6 2.4.8 0 1.8-.4 3-1l-.8 1.2c-4 1.2-6.6 2.9-6.6 5.1 0 2.9 4.4 3.5 6.6-.2L260 78c2.5-.8 4.9-2.2 7.4-4.6 0 1.9 1.6 3.2 4 3.2 2.5 0 5-1.4 7-3.2-.1 3.9 5.3 4.7 8.5.6h.7c1 0 2.2-.3 3.3-.9-.8 2.1 0 3.5 1.7 3.5 1.6 0 3.5-1.5 4.9-2.9-.3 1.6.7 2.9 2.6 2.9 2.5 0 5.3-2.6 7.8-5.5 1.7-2 3.2-4.1 4.3-5.5-1.2 3.1-.5 8.7-3.4 8.7-1 0-1.4-1.1-1.4-1.1l-2 1s.6 2.4 3.4 2.4l.8-.1h.1c3.1-.4 6.1-2.8 8.3-5.4 0-.5-.6-1-1-1.1zm-43-4.2c1.7-3 4.8-2.5 3 .6l-.4.7c-1.4 2.4-3.4 2.4-4.5 2l1.9-3.3zm-57.4 15.6c-.6 1.1-1.6 1-1.6.1 0-.8.7-1.7 3-2.6l-1.4 2.5zm1.4-6.7c-.7 0-1-.5-.3-1.6l4.2-7.3c1.6-2.8 4.8-2.1 3.3.6l-2.3 4c-1.8 2.9-3.7 4.3-4.9 4.3zm18.5-4.5h-.1a1.8 1.8 0 0 0-1.5 2.8v.1c-1.4 2.4-4.9 2-3.1-1.2l2.3-3.9 1.4-2.4c2-3.6 5-2.2 3.2.9l-2.2 3.7zM255 81.4c-.6 1.1-1.6 1-1.6.1 0-.8.7-1.7 3-2.6l-1.4 2.5zm1.4-6.7c-.7 0-1-.5-.3-1.6l4.2-7.3c1.7-2.8 4.9-2.1 3.4.6l-2.3 4c-1.9 2.9-3.8 4.3-5 4.3zm29.6-4.5a1.8 1.8 0 0 0-1.6 2.8v.1c-1.4 2.4-4.8 2-3-1.2l2.2-3.9 1.4-2.4c2.1-3.6 5-2.2 3.2.9l-2.2 3.7zm-155.5-3.4h-29v2h29v-2zm227.8 0h-29v2h29v-2z" fill="#766458"/>
  <path d="M163.5 0h7.8L170 44.9h-14.6l-2-18.5-2 18.5h-14.7l-1-44.9h7.6l.6 37.2h.8l5-37.2h7.6l5 37.2h.7l.5-37.2zm31.9 37.2V45h-21V0h21v7.7h-13.3v10.8h10.6v7.7h-10.6v10.9h13.3v.1zm21.6 0V45h-18.5V0h7.7v37.2h10.7zm16.2-8.8l7.7-1.8v13.6c0 2.6-2.2 4.7-4.7 4.7h-11.6a4.8 4.8 0 0 1-4.7-4.7V4.7c0-2.6 2.1-4.7 4.7-4.7h11.6c2.5 0 4.7 2.1 4.7 4.7v9.1l-7.7 1.8v-8h-5.6v29.5h5.6v-8.7zM261.8 0c2.5 0 4.7 2.1 4.7 4.7v35.4c0 2.6-2.2 4.7-4.7 4.7h-11.6a4.8 4.8 0 0 1-4.7-4.7V4.7c0-2.6 2.1-4.7 4.7-4.7h11.6zm-3 7.7h-5.6v29.5h5.5V7.7zM291.5 0h7.7v44.9h-7.7V22.8l-3 11.4h-7.6l-3-11.4v22.1h-7.6V0h7.6l6.8 21.7L291.5 0zM324 37.2V45h-21V0h21v7.7h-13.4v10.8h10.6v7.7h-10.6v10.9H324v.1z" fill="#81B3D3"/>
  <path d="M44.4 157.6c-3.6-3-8-5-12.9-5-3.6 0-8.3 2.1-8.3 6.3 0 4.4 5.3 6.1 8.6 7.1l5 1.5c10.5 3.1 18.6 8.3 18.6 20.4 0 7.4-1.8 15.1-7.7 20.1-6 5-13.8 7-21.3 7-9.4 0-18.8-3.2-26.4-8.5L8.1 191a27 27 0 0 0 17.4 7.7c4.6 0 9.4-2.3 9.4-7.5 0-5.5-7.6-7.3-11.8-8.5-12.3-3.6-20.3-6.7-20.3-21.2 0-15.2 10.8-25.1 25.9-25.1a51 51 0 0 1 23.5 6.2l-7.8 15zm47.5-2.8v12.5h22v16.5h-22v12.9h23.3v16.5H72.4v-74.8h42.8v16.5l-23.3-.1zm37.7-16.4h27.7a37.7 37.7 0 0 1 38.1 37.4c0 21-17.3 37.4-38 37.4h-27.8v-74.8zm19.6 58.3h4.4c11.6 0 21.6-6.4 21.6-20.9 0-13.4-8.9-20.9-21.4-20.9h-4.6v41.8zm138.4-22.3a39.9 39.9 0 0 1-41.5 41.3 40 40 0 0 1-41.5-41.3c0-22.6 20-38.5 41.5-38.5 21.6 0 41.5 15.9 41.5 38.5zm-62.8.1c0 12.9 9.6 22.3 21.2 22.3s21.2-9.4 21.2-22.3c0-10.3-9.6-19.8-21.2-19.8-11.5 0-21.2 9.5-21.2 19.8zm73.2-36.1h19.5l35.7 45.8h.3v-45.8H373v74.8h-19.6l-35.7-45.9h-.2v45.9H298v-74.8zm110.4 61.8l-5.2 13h-20.7l29-74.8h21.2l28.3 74.8h-20.8l-4.9-13h-26.9zm13.7-38.7h-.2l-8 23.8H430l-8-23.8zM108.3 287.7c7.7-2.6 8.2-12.2.7-12.2-2.2 0-4.7 1.5-6.4 4.4l-10.2 17.7c-.5.8-.9 1.5-1.5 2.2-2.6-3.6-2-9 1.8-11.4l-1.5-1.9c-8 5.1-5.6 19.7 7.7 19.7 11.4 0 16.7-13.6 9.4-18.5zm-9.5 15.6c-2.3 0-4-.5-5.5-1.3l2-2.7 6.3-11.1 1 .1c9 1.9 5.5 15-3.8 15zM103 286l3.1-5.3c2.9-4.8 6.4-2 4.5 1.6-1.5 2.8-3.7 3.6-7.6 3.7z" fill="#fff"/>
  <path d="M140.5 300c-.6 2.2.6 4.1 3 4.1 1.6 0 3.5-1 5.4-2.5.2 1.5 1.4 2.5 3.3 2.5 2 0 4.2-1.4 6.4-3.4-.4 2 .5 3.4 2.4 3.4 2.1 0 4.4-1.9 6.2-3.6-.4 2 .8 3.6 3.3 3.6 3 0 6.7-3.4 9.9-7l-.1-.2c2-2.4 3.9-5 5.3-6.8-1.5 3.9-.7 11-4.3 11-1.3 0-1.8-1.4-1.8-1.4l-2.4 1.2s.7 3.1 4.2 3.1l1-.1h.2c2.8-.4 5.5-2.1 8-4.2 0 2.5 2 4.3 5 4.3 4.3 0 8.7-3.4 11.8-7-.3-.5-1-1.1-1.4-1.3l-.3.3c-2.7 3.2-6.3 5.7-9 5.7-2.3 0-3.7-1.5-2-4.5l.4-.7c2.4 1 7 .5 10-4.4l.5-.9c2-3.5 0-6.1-3-6.1a8 8 0 0 0-7.2 4.4l-3.7 6.3-.4.3a24.7 24.7 0 0 1-4.6 4.1c1.2-3.6 1-9.2 3.3-14l-2.8-1.5c-1.6 2.2-5 7.1-8.4 11.1v.3c-2.7 3.2-5.4 5.7-7.1 5.7-.8 0-1.3-.6-.4-2.1l8-14.2h-3.7l-6.8 11.8c-2.9 2.6-5 4.1-5.8 3.8-.9-.4 0-1.8.5-2.6l7.5-12.9H167l-6 10.4-.3-.2-.3.3c-2.7 3.2-5.4 5.7-7.1 5.7-.8 0-1.3-.6-.4-2.1L159 289h-2.2c.1-1.6-1.5-3.8-4-3.8-2 0-5 1.6-6.5 4.4l-3.8 6.6-.6-.4-.3.3c-2.7 3.2-6.3 5.7-9 5.7-2.3 0-3.7-1.5-2-4.5l4-6.8c2.1-3.8 6-3.1 3.8.8l-.6.9h3.2l.5-.9c2-3.5 0-6.1-3-6.1a8 8 0 0 0-7.2 4.4l-3.8 6.5-.3-.2-.3.3c-2.7 3.2-6.2 5.7-9 5.7-2.2 0-3.6-1.5-2-4.5l.5-.7c2.4 1 7 .5 10-4.4l.4-.9c2-3.5.1-6.1-3-6.1s-5.5 1.6-7.1 4.4l-4 6.8c-2.4 4-.3 7.8 4.2 7.8 3.3 0 6.7-2 9.4-4.6 0 2.6 2 4.6 5.1 4.6a16 16 0 0 0 9-4.3zm58.1-9.6c2.3-3.8 6.2-3.1 3.9.8l-.5.9c-1.8 3.1-4.4 3-5.8 2.5l2.4-4.2zm-54.3 9.3l5.3-9.2c2-3.5 6.1-2.6 4.2.8l-3 5.2c-2.3 3.6-4.6 5.3-6.1 5.3-.8-.1-1.3-.6-.4-2.1zm-24.3-9.3c2.2-3.8 6.1-3.1 3.8.8l-.5.9c-1.8 3.1-4.3 3-5.7 2.5l2.4-4.2zm129 13.7c4.3 0 8.6-3.4 11.7-7-.3-.5-.9-1.1-1.4-1.3l-.3.3c-2.7 3.2-6.2 5.7-8.9 5.7-2.3 0-3.7-1.5-2-4.5l.4-.7c2.4 1 7 .5 10-4.4l.4-.9c2-3.5.1-6.1-3-6.1-3 0-5.5 1.6-7 4.4l-3.8 6.3-.1-.1-.3.3c-2.7 3.2-5.4 5.7-7.1 5.7-.8 0-1.3-.6-.4-2.1l5.5-9.6c1.6-2.9 0-5-2-5-1.6 0-3.4.9-5.3 2.9l6-10.5h-3.8L226.8 296l-.4-.3-.3.3c-2.7 3.2-5.4 5.7-7 5.7-.9 0-1.4-.6-.5-2.1l8.1-14.2h3.1l1.2-1.8h-3.2l3.7-6.2h-3.9l-3.6 6.2h-3.4l-1 1.8h3.4l-7.6 13.2c-1.6 2.8-.5 5.4 2.6 5.4 2 0 4-1.2 6-3l-1.5 2.6h3.8l5.9-10c5.8-7.3 8.4-6.4 6.8-3.6l-5 8.6c-1.5 2.8-.4 5.4 2.7 5.4 2.3 0 4.9-1.8 7.3-4.2 0 2.5 1.9 4.3 5 4.3zm3.1-13.7c2.2-3.8 6.1-3.1 3.8.8l-.5.9c-1.8 3.1-4.3 3-5.7 2.5l2.4-4.2zm112.3 5.4l-.3.3c-2.7 3.2-5.4 5.7-7.1 5.7-.8 0-1.3-.6-.4-2.1l12.8-22.2h-3.8l-5.6 9.6c-.7-1.1-2-2-3.5-2-2 0-5 1.6-6.6 4.4l-3.7 6.4-.2-.1-.3.3c-2.7 3.2-5.4 5.7-7.1 5.7-.8 0-1.3-.6-.4-2.1l5.5-9.6c1.6-2.9.1-5-2-5-1.6 0-3.4.9-5.3 2.8l1.4-2.5H334l-6.1 10.5-.4-.2-.3.3c-2.7 3.2-5.5 5.7-7.2 5.7-.8 0-1.3-.6-.4-2.1l6.2-10.7h-2c.2-1.6-1.5-3.8-4-3.8-2 0-4.9 1.6-6.5 4.4l-3.7 6.3-.2.2c-2.7 3.2-5.4 5.7-7.1 5.7-.8 0-1.3-.6-.4-2.1l3.8-6.6c1.3-2.3.7-3.6-.5-5.1l-2.1-2.6c-.5-.7-.5-1.5.2-2.2l-2-2.2c-2.2 1.9-2.3 4.1-1 5.8l.3.4c-1.7 2.4-4 5.6-6.4 8.5l.3.3a25.2 25.2 0 0 1-8.9 7.2l4.8-8.2h-3.7l-.4.7c-2 3.5-4.3 6.1-7.3 6.1-2.6 0-3.1-2.6-.8-6.5l1.1-1.9 2.2.2c13.6 0 20-18.1 8.1-18.1-2 0-4.6 1.5-6.3 4.4l-5.9 10.2a6.2 6.2 0 0 1-3.4-5.4c0-1.8.8-3.5 2.4-4.8l-1.2-2.2a8.6 8.6 0 0 0-4 7.1c0 3 1.8 5.9 4.9 7.5l-1.1 2c-2.7 4.6-2.2 9.7 3.2 9.7 1.6 0 3-.5 4.1-1.2l-1 1.7c-5.1 1.6-8.3 3.6-8.3 6.5 0 3.6 5.6 4.4 8.3-.3l3-5a27 27 0 0 0 12-8.8l-.2-.4c1.7-2 3-3.9 6-7.8l.5.6c.5.6.7 1.4.2 2.2l-4 7c-1.6 2.8-.5 5.4 2.6 5.4 1.9 0 4-1.2 6-3 0 1.7 1.1 3 3.3 3 1.5 0 3.4-1 5.3-2.5.2 1.5 1.4 2.5 3.3 2.5 1.8 0 3.9-1.1 5.8-2.8l-1.4 2.4h3.8l5.8-10.1c5.8-7.3 8.4-6.3 6.7-3.5l-5 8.6c-1.5 2.8-.4 5.4 2.7 5.4 2 0 4.2-1.4 6.4-3.3-.2 1.9 1 3.3 3.3 3.3 1.5 0 3.4-1 5.3-2.5.2 1.5 1.5 2.5 3.4 2.5 3 0 6.7-3.4 9.9-7l-1.6-1zm-78.2-14.2c1.1-1.9 2.4-2.8 3.4-2.8 6 0 1.8 12.3-8 12.3h-.9l5.5-9.5zm-8 28.6c-.9 1.4-2.2 1.2-2.2.2s.9-2.1 3.8-3.2l-1.7 3zm39.7-13.8c-2.3 3.6-4.6 5.3-6 5.3-.9 0-1.4-.6-.5-2.1l5.3-9.2c2-3.5 6.2-2.6 4.2.8l-3 5.2zm36.9-.2c-2.4 3.8-4.7 5.5-6.3 5.5-.8 0-1.3-.6-.4-2.1l5.3-9.2c2-3.5 6.2-2.6 4.3.8l-3 5zm-117.5 35.6l-.3.3c-2.7 3.2-5.4 5.7-7.2 5.7-.8 0-1.3-.6-.4-2.1l5.6-9.6c1.6-2.9 0-5-2-5-1.6 0-3.5.9-5.4 2.8l1.4-2.5h-3.8l-6 10.6-.6-.3-.3.3a7.8 7.8 0 0 1-5.7 2.8l3.6-6.2c2.3-4 .2-7.7-3.4-7.7-3 0-5.2 1.2-7.4 5l-2 3.2-1.5 2.8-.3-.2-.3.3a25.2 25.2 0 0 1-8.9 7.2l10.5-17.8H199l-6.7 11.7c-2.9 2.7-5.2 4.2-5.9 3.9-.9-.4 0-1.8.5-2.6l7.4-12.9h-3.8l-6.1 10.5-.3-.2-.3.3c-2.7 3.2-5.4 5.7-7.1 5.7-.8 0-1.3-.6-.4-2.1l5.5-9.6c1.6-2.9 0-5-2-5-1.6 0-3.4.9-5.3 2.8l1.4-2.5H172l-6.2 10.5-.4-.2-.3.3c-2.7 3.2-5.4 5.7-7 5.7-.9 0-1.4-.6-.5-2.1l6.1-10.7h-2.2c.1-1.6-1.5-3.8-4-3.8-2 0-4.9 1.6-6.5 4.4l-4 6.8-.7-.5-.3.3c-2.7 3.2-6.1 5.7-9.9 5.7-2.6 0-4.2-2.6-1.9-6.5l1.1-1.9 2.2.2c4 0 8.7-2.1 11.7-7.3a10 10 0 0 0 1.5-5.1c0-3.4-2.2-5.7-5-5.7-2.1 0-4.6 1.5-6.3 4.4l-6 10.2a6.2 6.2 0 0 1-3.4-5.4c0-1.8.8-3.5 2.4-4.8l-1.2-2.2a8.6 8.6 0 0 0-3.9 7.1c0 3 1.7 5.9 4.8 7.5l-1 2c-2.8 4.6-1.2 9.7 4.2 9.7 4.3 0 7.5-1.9 10-4.4-.7 2.4.5 4.4 3.2 4.4 1.5 0 3.4-1 5.3-2.5.2 1.5 1.4 2.5 3.3 2.5 1.8 0 3.8-1.1 5.7-2.8l-1.4 2.4h3.8l5.9-10.1c5.8-7.3 8.4-6.3 6.7-3.5l-5 8.6c-1.5 2.8-.4 5.4 2.7 5.4 2 0 4.3-1.4 6.5-3.4-.5 2.1.5 3.4 2.4 3.4 1.8 0 4-1.5 5.6-3.1l-2 3.6c-5.2 1.5-8.5 3.6-8.5 6.5 0 3.6 5.6 4.4 8.3-.3l3-5c3.1-1 6.2-3 9.6-6.2-.5 5.3 6.5 6.5 10.8 1.1h.8c1.4 0 3.3-.5 5-1.5l-2.5 4.4h3.8l5.8-10.1c5.8-7.3 8.5-6.3 6.8-3.5l-5 8.6c-1.6 2.8-.5 5.4 2.6 5.4 3.2 0 6.8-3.4 10-7-.1-.3-.8-.9-1.3-1.1zm-94.7-14.2c1-1.9 2.4-2.8 3.4-2.8 1.4 0 2 .9 2 2.3 0 3.5-4.2 9.9-10.2 9.9h-.8l5.6-9.4zm13.4 14.8c-2.3 3.6-4.6 5.3-6.1 5.3-.8 0-1.3-.6-.4-2.1l5.3-9.2c2-3.5 6.1-2.6 4.2.8l-3 5.2zm28.9 13.8c-.8 1.4-2.1 1.2-2.1.2s.9-2.1 3.8-3.2l-1.7 3zm25.7-14.2h-.2c-1.2 0-2.2 1-2.2 2.3 0 .5 0 .9.4 1.3v.1c-1.8 3.1-6.1 2.5-4-1.5l3-5 1.8-3.1c2.7-4.5 6.3-2.7 4 1.2l-2.8 4.7zm114.9 1.1c-.2-.6-1-1.2-1.4-1.3l-.3.3a24.8 24.8 0 0 1-4.7 4.1c1.2-3.6 1-9.2 3.3-14l-2.8-1.5c-1.6 2.2-5 7.1-8.4 11.1l-.3.3c-2.7 3.2-5.4 5.7-7.1 5.7-.8 0-1.6-.8-1.6-2.6v-1.6c2.7.3 5.5-1.4 7.3-4.5l1-1.8c3.5-6.1-2.2-8.1-6.1-4.5l5.4-9.4H306l-10.8 18.8a3 3 0 0 0-.7-.5l-.3.3c-2.8 3.2-6.3 5.7-9 5.7-2.3 0-3.7-1.5-2-4.5l4-6.8c2.1-3.8 6-3.1 3.7.8l-.5.9h3.2l.5-.9c2-3.5 0-6.1-3-6.1a8 8 0 0 0-7.2 4.4l-3.7 6.4-.2-.1-.3.3c-2.7 3.2-5.4 5.7-7.1 5.7-.8 0-1.3-.6-.4-2.1l8.1-14.2h-3.8l-6.7 11.8c-3 2.6-5.1 4.1-5.8 3.8-1-.4 0-1.8.5-2.6l7.4-12.9H268l-7.5 12.7-2.4 2c1.2-3.6 1-9.2 3.4-14l-2.9-1.5a421.4 421.4 0 0 1-13.8 17.8c.3.5.9.9 1.4 1.3 2.2-2.5 9.4-11.8 10.7-13.6-1.5 3.9-.7 11-4.3 11-1.3 0-1.8-1.4-1.8-1.4l-2.4 1.2s.7 3.1 4.2 3.1l1.1-.1h.1c2-.3 3.8-1.1 5.6-2.4 0 1.5 1 2.5 2.6 2.5 2 0 4.4-1.9 6.2-3.6-.4 2 .8 3.6 3.2 3.6 2.4 0 5-1.9 7.5-4.4 0 2.5 2 4.4 5.1 4.4 3.1 0 6.1-1.7 8.9-4l-2.2 3.7h3.9l4.3-7.5v3c0 3.2.6 4.9 3.7 4.9s6.7-3.4 10-7c2.1-2.5 4-5.1 5.3-6.9-1.5 3.9-.7 11-4.3 11-1.3 0-1.8-1.4-1.8-1.4l-2.4 1.2s.7 3.1 4.2 3.1l1.1-.1h.1c3.8-.7 7.8-3.8 10.6-7.1zm-25.3-3l1-1.9c4.5-6.1 7.5-4.4 6.1-2.1l-1.8 3.1c-1.1 2-4.4 3.4-5.3.9zm25.2 5.6c-1.2 0-2.2 1-2.2 2.2 0 1.2.9 2.2 2.2 2.2 1.2 0 2.2-.9 2.2-2.2 0-1.2-1-2.2-2.2-2.2zm.2-1.5h3.8l12-20.7h-3.9l-12 20.7zM80.5 277.6l-.2.9-.5.8-.8.6-1.1.2c-.5 0-1-.1-1.4-.3-.4-.2-.8-.4-1-.7-.4-.3-.5-.6-.7-1l-.2-1.3c0-.9.2-1.6.5-2.4a5 5 0 0 1 1.3-1.9l.9-.7.9-.5.7-.4.4-.2 1.4 2-.8.4a4 4 0 0 0-1 .5l-.6.8c-.2.3-.3.6-.3 1 .7 0 1.2.2 1.7.6.6.3.8.9.8 1.6zm7.9 0l-.2.9-.5.8-.8.6-1.1.2c-.5 0-1-.1-1.3-.3l-1.1-.7-.6-1-.2-1.3c0-.9.2-1.6.5-2.4a5 5 0 0 1 1.3-1.9l.8-.7.9-.5.7-.4.4-.2 1.4 2-.8.4-1 .5-.6.8c-.2.3-.3.6-.3 1 .7 0 1.2.2 1.7.6.5.3.8.9.8 1.6zm266 58.9c0-.3 0-.6.2-.9 0-.3.3-.6.5-.8l.8-.6 1-.2c.6 0 1 .1 1.4.3.4.2.8.4 1 .7.4.3.5.6.7 1l.2 1.3c0 .9-.2 1.6-.5 2.4a5 5 0 0 1-1.3 1.9l-.8.7-1 .5-.6.4-.4.2-1.4-2 .8-.4.9-.5.7-.8c.2-.3.3-.6.3-1-.7 0-1.2-.2-1.7-.6-.5-.3-.8-.9-.8-1.6zm-7.9 0l.2-.9.5-.8.8-.6 1.1-.2c.5 0 1 .1 1.3.3l1.1.7.6 1 .2 1.3c0 .9-.2 1.6-.5 2.4a5 5 0 0 1-1.3 1.9l-.8.7-.9.5-.7.4-.4.2-1.4-2 .8-.4 1-.5.6-.8c.2-.3.3-.6.3-1-.7 0-1.2-.2-1.7-.6-.6-.3-.8-.9-.8-1.6z" fill="#fff"/>
</svg>
